# xmcd
#
# Track frame offsets: 
#        150
#        15775
#        41625
#        59357
#        86125
#        106012
#        123107
#        145990
#        153025
#        171405
#        190090
#        209812
#
# Disc length: 3092 seconds
#
# Revision: 3
# Processed by: cddbd v1.5.2PL0 Copyright (c) Steve Scherf et al.
# Submitted via: ExactAudioCopy v0.95a5
#
DISCID=9a0c120c
DTITLE=Methrone - My Life
DYEAR=2000
DGENRE=R&B
TTITLE0=Hold Me
TTITLE1=I Wanna Get Freaky
TTITLE2=Methrone's Dance
TTITLE3=My Life
TTITLE4=Your Body
TTITLE5=You Don't Have 2 Worry
TTITLE6=Loving Each Other 4 Life
TTITLE7=Interlude (The Storm)
TTITLE8=Slow and Steady
TTITLE9=Last Time
TTITLE10=Got 2 Go
TTITLE11=Loving Each Other 4 Life (Remix)
EXTD=
EXTT0=
EXTT1=
EXTT2=
EXTT3=
EXTT4=
EXTT5=
EXTT6=
EXTT7=
EXTT8=
EXTT9=
EXTT10=
EXTT11=
PLAYORDER=
